<?xml version="1.0" encoding="utf-8"?>
<!-- Generator: Adobe Illustrator 28.1.0, SVG Export Plug-In . SVG Version: 6.00 Build 0)  -->
<svg version="1.1" id="Layer_1" xmlns="http://www.w3.org/2000/svg" xmlns:xlink="http://www.w3.org/1999/xlink" x="0px" y="0px"
	 viewBox="0 0 1500 876.6" style="enable-background:new 0 0 1500 876.6;" xml:space="preserve">
<style type="text/css">
	.st0{fill:#FF0000;}
</style>
<g>
	<g>
		<g>
			<path class="st0" d="M863.3,261.8v60.8H741.9c17.9-19.6,39-35,62-45.4C822.7,268.7,842.7,263.4,863.3,261.8z"/>
			<path class="st0" d="M650.8,322.6v-60.8h121.4c-17.9,19.6-39,35-62,45.4C691.4,315.7,671.4,321,650.8,322.6z"/>
		</g>
		<g>
			<path class="st0" d="M832.9,186c-17.8,19.5-38.7,34.6-61.5,44.9c-22.8,10.3-47.4,15.8-72.5,15.8h-48V186H832.9z"/>
		</g>
		<path class="st0" d="M863.3,201.2c-0.1,0-0.2,0.1-0.3,0.1c-22.9,10.4-44,25.7-61.9,45.4h62.2V201.2z"/>
		<g>
			<path class="st0" d="M863.3,337.8v60.7H681.2c17.8-19.4,38.7-34.6,61.5-44.9c22.8-10.3,47.4-15.8,72.5-15.8H863.3z"/>
		</g>
		<g>
			<path class="st0" d="M711.5,337.8c-17.6,19.2-38.3,34.3-60.8,44.6v-44.6H711.5z"/>
		</g>
	</g>
	<g>
		<g>
			<path d="M300.6,662.7H219V504.7H186v186h125.7C308,681.4,304.5,673.5,300.6,662.7z"/>
			<path d="M436.1,690.6v-19.5c-8,8-16.7,13.8-26,17.6c-9.4,3.7-20.4,5.6-33.1,5.6c-17.5,0-31.1-3.6-40.6-10.8
				c-9.6-7.2-14.3-17.4-14.3-30.6c0-14.8,6.2-25.7,18.6-32.9c12.4-7.2,32-11.2,58.7-12.1l35.9-1v-4.4c0-18.4-12.2-27.6-36.5-27.6
				c-11.8,0-20.9,1.4-27.3,4.3c-6.4,2.9-10.6,7.3-12.5,13.2l-27.9-3.1c3.1-13,10.2-22.6,21.4-28.8c11.1-6.2,26.9-9.2,47.4-9.2
				c22,0,38.4,4.3,49.1,13c10.7,8.7,16,22,16,39.8v86.7H436.1z M435.3,627.3l-35.4,1c-16.3,0.5-28.1,2.5-35.3,6
				c-7.2,3.5-10.8,8.8-10.8,15.9c0,6.4,2.8,11.4,8.3,15c5.6,3.6,13.3,5.3,23.2,5.3c7.5,0,14.6-1.1,21.5-3.3
				c6.9-2.2,12.8-5.2,17.8-9.2c7.1-5.4,10.7-12.6,10.7-21.6V627.3z"/>
			<path d="M547.3,531.4c4.5-3.2,11.4-4.8,20.6-4.8c4.8,0,9.6,0.4,14.5,1.4v-23.5c-6.8-1.2-13.6-1.8-20.5-1.8
				c-16.5,0-29.4,3.9-38.7,11.7c-9.3,7.8-13.9,18.7-13.9,32.6v8.3h-26.3v23.7h26.3v111.7h31.3V578.9h18c12.8,0,23.8-10.3,23.8-23.7
				h-41.9v-8.6C540.5,539.6,542.7,534.6,547.3,531.4z"/>
			<path d="M720.8,556.3c-3.1,8.6-10,18.8-16.1,23.5c-3.6-0.5-6.9-0.7-10-0.7c-13.7,0-24.8,3.9-33.3,11.7
				c-8.5,7.6-12.8,16.6-12.8,26.8v72.9h-31.3V578.9H589c0-10.6,6.6-23.3,23.6-23.7h35.5v23.2c6.4-8.2,13.9-14.4,22.5-18.8
				c8.6-4.3,17.8-6.5,27.5-6.5c4.2,0,9,0.4,14.6,1.3C715.5,554.9,718.2,555.5,720.8,556.3z"/>
			<path d="M748.7,630.7c0.3,12.5,4.7,22.4,13.2,29.8c8.4,7.4,19.5,11.1,33.2,11.1c10.8,0,19.6-1.8,26.4-5.3
				c6.9-3.6,11.6-8.8,14.2-15.8h31c-3.8,14.9-11.7,26-23.6,33.3c-11.9,7.3-28,10.9-48.3,10.9c-23.8,0-42.5-6.3-56.1-18.9
				c-13.6-12.6-20.4-29.8-20.4-51.7c0-14.2,3.1-26.9,9.2-37.9c6.2-11,15-19.7,26.6-25.9c11.5-6.3,25-9.4,40.5-9.4
				c23.4,0,41.6,6,54.6,18.1c12.9,12.1,19.4,29,19.4,50.7v10.9H748.7z M838.5,609.9c-0.3-11.5-4.4-20.4-12.1-26.7
				c-7.7-6.3-18.5-9.5-32.2-9.5c-12.3,0-22.5,3.3-30.6,9.8c-8.1,6.5-12.8,15.3-14.2,26.4H838.5z"/>
			<path d="M1003.7,690.6v-81.8c0-11.5-2.7-19.7-8.1-24.9c-5.4-5.1-14.1-7.7-26-7.7c-6.6,0-13,1.2-19.1,3.6
				c-6.2,2.4-11.6,5.8-16.3,10.2c-8.2,7.6-12.2,16.5-12.2,26.6v74h-31.3V555.2h30.7v22.4c14.9-17.7,34.2-26.6,57.8-26.6
				c18.2,0,32.1,4.4,41.5,13.3c9.5,8.9,14.2,21.8,14.2,38.8v87.5H1003.7z"/>
			<path d="M1151.4,578.9C1151.4,578.9,1151.4,578.9,1151.4,578.9c12.9,0,23.8-10.3,23.8-23.7h-73.4V518h-31.3v37.2h-25.8
				c4.2,7.9,7.6,15.3,11.1,23.7h14.7v68c0,16.3,3.7,28.2,11.1,35.5c7.4,7.4,19,11.1,35,11.1c12.1,0,24-1.8,35.7-5.5l-4.7-22.9
				c-8,2.6-16,3.9-24,3.9c-7.5,0-13-1.7-16.5-5.2c-3.6-3.5-5.3-8.8-5.3-15.9v-69H1151.4z"/>
			<path d="M1176,690.6v-21.1l91.9-90.4h-85.8c0-13.2,9.3-24,23.2-24h103.3v21.1l-91.9,90.4h97.4l-3.6,24H1176z"/>
		</g>
	</g>
</g>
</svg>
